# xmcd
#
# Track frame offsets: 
#        150
#        11570
#        21605
#        30865
#        42130
#        52957
#        63905
#        77190
#        88515
#        97910
#        109632
#        121497
#        133987
#        146877
#        159547
#        171187
#        183640
#        196842
#        207365
#        218957
#        227675
#        238885
#        250470
#        262800
#
# Disc length: 3654 seconds
#
# Revision: 0
# Processed by: cddbd v1.5.1PL0 Copyright (c) Steve Scherf et al.
# Submitted via: ExactAudioCopy v0.95a5
#
DISCID=520e4418
DTITLE=Sonny James - Sonny James - Signature Series
DYEAR=2002
DGENRE=Country
TTITLE0=Young Love
TTITLE1=You're the Only World I Know
TTITLE2=Behind the Tear
TTITLE3=Take Good Care of Her
TTITLE4=Need You
TTITLE5=I'll Never Find Another You
TTITLE6=It's the Little Things
TTITLE7=A World of Our Own
TTITLE8=Heaven Says Hello
TTITLE9=Born to Be With You
TTITLE10=Only the Lonely (Know the Way I Feel)
TTITLE11=Running Bear
TTITLE12=Since I Met You Baby
TTITLE13=My Love
TTITLE14=It's Just a Matter of Time
TTITLE15=Don't Keep Me Hangin' On
TTITLE16=Endlessly
TTITLE17=Empty Arms
TTITLE18=Bright Lights, Big City
TTITLE19=You're the Reason I'm in Love
TTITLE20=First Date, First Kiss, First Love
TTITLE21=Here Comes Honey Again
TTITLE22=That's Why I Love You the Way I Do
TTITLE23=The Cat Came Back
EXTD=
EXTT0=
EXTT1=
EXTT2=
EXTT3=
EXTT4=
EXTT5=
EXTT6=
EXTT7=
EXTT8=
EXTT9=
EXTT10=
EXTT11=
EXTT12=
EXTT13=
EXTT14=
EXTT15=
EXTT16=
EXTT17=
EXTT18=
EXTT19=
EXTT20=
EXTT21=
EXTT22=
EXTT23=
PLAYORDER=
